<svg xmlns="http://www.w3.org/2000/svg" version="1.1" xmlns:xlink="http://www.w3.org/1999/xlink" width="356" height="286"><svg xmlns="http://www.w3.org/2000/svg" version="1.1" xmlns:xlink="http://www.w3.org/1999/xlink" width="356" height="286"><svg width="356" height="286" viewBox="0 0 356 286" fill="none" xmlns="http://www.w3.org/2000/svg">
<path d="M139.512 13.3L170.862 35.834C159.386 45.22 149.658 54.72 141.26 64.942C139.474 67.222 137.916 62.244 134.496 62.244C132.634 62.244 132.026 64.144 132.52 65.702C133.546 68.932 101.17 37.354 95.66 31.768C89.884 25.878 97.294 23.256 99.992 31.274C102.994 40.128 118.992 51.832 122.108 53.39C123.894 54.264 119.258 45.752 116.104 40.166C112.912 34.58 119.22 31.502 119.524 36.138C120.36 47.956 125.832 47.424 125.832 47.424C130.886 37.088 135.37 25.878 139.512 13.3ZM109.72 97.546C100.866 93.1 65.906 82.346 62.98 81.396C56.748 80.37 56.9 88.388 70.39 87.742C80.384 87.286 93.874 93.86 93.076 95.076C92.278 96.292 80.118 95.57 76.584 95.19C70.656 94.544 69.022 102.866 79.434 100.434C82.018 99.826 91.48 97.812 89.352 99.636C83.614 105.792 77.382 111.986 70.504 118.332C66.134 122.018 63.322 127.528 63.322 133.722C63.322 144.818 72.328 153.824 83.424 153.824C92.316 153.824 99.84 148.086 102.5 140.068C102.5 140.03 102.538 139.992 102.538 139.916C102.652 139.498 102.804 139.08 102.918 138.662C107.516 123.12 112.114 113.24 113.938 109.592C114.394 108.718 114.052 107.616 113.178 107.16C109.036 104.88 108.808 103.778 111.696 103.398C114.888 103.056 118.536 101.992 109.72 97.546Z" fill="url(#paint0_linear_1_4)"></path>
<path d="M139.17 32.642C142.058 36.214 150.114 41.306 155.776 49.286C160.45 44.764 165.466 40.28 170.862 35.872L139.512 13.338C138.448 16.644 137.308 19.836 136.206 22.952C135.56 26.22 136.586 29.45 139.17 32.642Z" fill="url(#paint1_linear_1_4)"></path>
<path d="M177.436 13.49C174.7 5.624 167.252 0 158.436 0C147.34 0 138.334 9.006 138.334 20.102C138.334 26.182 141.032 31.616 145.326 35.302C180.628 68.096 199.78 95.608 214.41 140.182L245.684 117.8C210.99 89.452 192.484 59.774 177.436 13.49Z" fill="url(#paint2_linear_1_4)"></path>
<path d="M197.956 100.738C204.226 112.556 209.546 125.438 214.41 140.182L245.684 117.8C243.062 115.672 240.554 113.544 238.122 111.378C220.756 108.224 211.56 105.716 197.956 100.738Z" fill="url(#paint3_linear_1_4)"></path>
<path d="M235.538 113.734C191.382 106.096 124.73 75.696 88.896 42.75C85.932 39.368 81.6 37.24 76.736 37.24C67.806 37.24 60.548 44.498 60.548 53.428C60.548 61.37 66.286 67.982 73.81 69.35C120.664 80.598 184.58 116.318 219.198 147.972C222.846 151.62 227.862 153.862 233.41 153.862C244.506 153.862 253.512 144.856 253.512 133.76C253.55 123.348 245.646 114.798 235.538 113.734Z" fill="url(#paint4_linear_1_4)"></path>
<path d="M8.01705 242.402H1.73864L19.8977 192.947H26.0795L44.2386 242.402H37.9602L23.1818 200.771H22.7955L8.01705 242.402ZM10.3352 223.084H35.642V228.396H10.3352V223.084ZM51.169 256.311V205.311H56.6747V211.203H57.3509C57.7694 210.559 58.349 209.738 59.0895 208.74C59.8461 207.726 60.9247 206.824 62.3253 206.036C63.742 205.231 65.6577 204.828 68.0724 204.828C71.1956 204.828 73.9484 205.609 76.331 207.17C78.7135 208.732 80.5729 210.946 81.9091 213.811C83.2453 216.677 83.9134 220.057 83.9134 223.953C83.9134 227.881 83.2453 231.286 81.9091 234.168C80.5729 237.033 78.7216 239.255 76.3551 240.832C73.9886 242.394 71.2599 243.175 68.169 243.175C65.7865 243.175 63.8788 242.78 62.446 241.991C61.0133 241.187 59.9105 240.277 59.1378 239.263C58.3651 238.232 57.7694 237.379 57.3509 236.703H56.8679V256.311H51.169ZM56.7713 223.857C56.7713 226.658 57.1818 229.129 58.0028 231.27C58.8239 233.395 60.0232 235.061 61.6009 236.268C63.1785 237.46 65.1103 238.055 67.3963 238.055C69.7789 238.055 71.767 237.428 73.3608 236.172C74.9706 234.9 76.178 233.194 76.983 231.053C77.804 228.895 78.2145 226.497 78.2145 223.857C78.2145 221.249 77.812 218.898 77.0071 216.805C76.2183 214.696 75.0189 213.03 73.4091 211.807C71.8153 210.567 69.8111 209.947 67.3963 209.947C65.0781 209.947 63.1302 210.535 61.5526 211.71C59.9749 212.869 58.7836 214.495 57.9787 216.588C57.1738 218.665 56.7713 221.088 56.7713 223.857ZM87.7589 210.624V205.311H117.895V210.624H105.725V242.402H100.026V210.624H87.7589ZM166.776 208.402H160.788C160.433 206.679 159.814 205.166 158.928 203.862C158.059 202.558 156.996 201.464 155.741 200.578C154.501 199.677 153.125 199 151.612 198.55C150.098 198.099 148.521 197.874 146.879 197.874C143.884 197.874 141.172 198.63 138.741 200.143C136.326 201.657 134.402 203.886 132.969 206.832C131.553 209.778 130.844 213.393 130.844 217.675C130.844 221.957 131.553 225.571 132.969 228.517C134.402 231.463 136.326 233.693 138.741 235.206C141.172 236.719 143.884 237.476 146.879 237.476C148.521 237.476 150.098 237.25 151.612 236.8C153.125 236.349 154.501 235.681 155.741 234.795C156.996 233.894 158.059 232.791 158.928 231.487C159.814 230.167 160.433 228.654 160.788 226.947H166.776C166.326 229.475 165.505 231.737 164.313 233.733C163.122 235.729 161.641 237.428 159.87 238.828C158.099 240.213 156.111 241.267 153.906 241.991C151.716 242.716 149.374 243.078 146.879 243.078C142.661 243.078 138.91 242.048 135.626 239.987C132.342 237.927 129.758 234.997 127.874 231.197C125.991 227.398 125.049 222.891 125.049 217.675C125.049 212.459 125.991 207.951 127.874 204.152C129.758 200.353 132.342 197.423 135.626 195.362C138.91 193.302 142.661 192.271 146.879 192.271C149.374 192.271 151.716 192.634 153.906 193.358C156.111 194.082 158.099 195.145 159.87 196.545C161.641 197.93 163.122 199.62 164.313 201.616C165.505 203.597 166.326 205.858 166.776 208.402ZM181.38 233.999L199.249 205.311H205.817V242.402H200.118V213.714L182.346 242.402H175.681V205.311H181.38V233.999ZM241.079 221.249V226.561H220.602V221.249H241.079ZM221.954 205.311V242.402H216.255V205.311H221.954ZM245.425 205.311V242.402H239.727V205.311H245.425ZM250.786 210.624V205.311H280.923V210.624H268.752V242.402H263.053V210.624H250.786ZM302.861 243.175C299.287 243.175 296.204 242.386 293.612 240.808C291.036 239.214 289.048 236.993 287.648 234.143C286.263 231.278 285.571 227.946 285.571 224.146C285.571 220.347 286.263 216.999 287.648 214.101C289.048 211.187 290.996 208.917 293.491 207.291C296.003 205.649 298.933 204.828 302.281 204.828C304.213 204.828 306.121 205.15 308.004 205.794C309.888 206.438 311.602 207.484 313.148 208.933C314.693 210.366 315.925 212.266 316.842 214.632C317.76 216.999 318.219 219.912 318.219 223.374V225.788H289.628V220.862H312.423C312.423 218.769 312.005 216.902 311.168 215.26C310.347 213.618 309.171 212.322 307.642 211.372C306.129 210.422 304.342 209.947 302.281 209.947C300.011 209.947 298.047 210.511 296.389 211.638C294.747 212.749 293.483 214.197 292.598 215.984C291.713 217.771 291.27 219.687 291.27 221.732V225.016C291.27 227.817 291.753 230.191 292.719 232.139C293.701 234.071 295.061 235.544 296.8 236.558C298.538 237.556 300.559 238.055 302.861 238.055C304.358 238.055 305.71 237.846 306.918 237.428C308.141 236.993 309.196 236.349 310.081 235.496C310.966 234.626 311.651 233.548 312.134 232.26L317.639 233.805C317.06 235.673 316.086 237.315 314.717 238.732C313.349 240.132 311.659 241.227 309.646 242.016C307.634 242.788 305.372 243.175 302.861 243.175ZM324.57 232.936H330.655C330.784 234.61 331.54 235.882 332.925 236.751C334.325 237.621 336.144 238.055 338.382 238.055C340.668 238.055 342.624 237.589 344.25 236.655C345.876 235.705 346.689 234.176 346.689 232.067C346.689 230.827 346.383 229.749 345.771 228.831C345.16 227.897 344.298 227.173 343.188 226.658C342.077 226.143 340.765 225.885 339.251 225.885H332.876V220.766H339.251C341.521 220.766 343.196 220.25 344.274 219.22C345.369 218.19 345.916 216.902 345.916 215.357C345.916 213.698 345.329 212.37 344.153 211.372C342.978 210.358 341.312 209.851 339.155 209.851C336.982 209.851 335.17 210.342 333.722 211.324C332.273 212.29 331.508 213.537 331.428 215.067H325.439C325.503 213.071 326.115 211.308 327.274 209.778C328.433 208.233 330.011 207.026 332.007 206.156C334.003 205.271 336.289 204.828 338.865 204.828C341.473 204.828 343.735 205.287 345.651 206.205C347.582 207.106 349.071 208.338 350.118 209.899C351.18 211.445 351.712 213.199 351.712 215.163C351.712 217.256 351.124 218.946 349.949 220.234C348.774 221.522 347.301 222.44 345.53 222.987V223.374C346.93 223.47 348.146 223.921 349.176 224.726C350.223 225.515 351.036 226.553 351.615 227.841C352.195 229.113 352.484 230.521 352.484 232.067C352.484 234.321 351.881 236.285 350.673 237.959C349.466 239.617 347.808 240.905 345.699 241.822C343.59 242.724 341.183 243.175 338.479 243.175C335.855 243.175 333.504 242.748 331.428 241.895C329.351 241.026 327.701 239.826 326.477 238.297C325.27 236.751 324.634 234.964 324.57 232.936Z" fill="#25373D"></path>
<path d="M0 255.925H46.5355V260.561H0V255.925ZM61.5036 255.925H355.286V260.561H61.5036V255.925Z" fill="#25373D"></path>
<path d="M8.01636 265.449V277.667H9.20386V282.639H7.77515V279.012H1.53149V282.639H0.102783V277.667H0.919189C1.26554 276.646 1.56242 275.647 1.80981 274.67C2.0634 273.687 2.27059 272.7 2.4314 271.711C2.59839 270.721 2.72518 269.71 2.81177 268.677C2.89836 267.644 2.95093 266.568 2.96948 265.449H8.01636ZM6.54126 266.766H4.35181C4.3147 267.768 4.24666 268.745 4.14771 269.698C4.05493 270.65 3.92814 271.581 3.76733 272.49C3.61271 273.393 3.42716 274.277 3.21069 275.143C2.99422 276.003 2.74683 276.844 2.46851 277.667H6.54126V266.766ZM16.301 279.012H10.9666V265.449H16.301V266.766H12.4417V271.265H16.0691V272.592H12.4417V277.667H16.301V279.012ZM21.45 279.012H19.9749V266.784H17.3308V265.449H24.1033V266.784H21.45V279.012ZM29.8274 266.58C29.2893 266.58 28.8254 266.732 28.4358 267.035C28.0523 267.338 27.7369 267.755 27.4895 268.287C27.2483 268.813 27.0689 269.416 26.9514 270.096C26.8401 270.771 26.7844 271.482 26.7844 272.23C26.7844 273.393 26.9112 274.395 27.1648 275.236C27.4246 276.077 27.7895 276.727 28.2595 277.184C28.7296 277.636 29.2831 277.862 29.9202 277.862C30.3036 277.862 30.6654 277.812 31.0056 277.713C31.3458 277.614 31.6581 277.494 31.9426 277.351V278.687C31.6458 278.86 31.3149 278.987 30.95 279.068C30.585 279.154 30.1861 279.198 29.7532 279.198C28.8316 279.198 28.0338 278.919 27.3596 278.363C26.6855 277.806 26.1659 277.008 25.801 275.969C25.4361 274.924 25.2537 273.671 25.2537 272.212C25.2537 271.253 25.3433 270.353 25.5227 269.512C25.7083 268.671 25.9866 267.929 26.3577 267.285C26.7349 266.642 27.2081 266.141 27.7771 265.783C28.3461 265.418 29.0141 265.235 29.781 265.235C30.2263 265.235 30.6531 265.294 31.0613 265.411C31.4757 265.523 31.8715 265.687 32.2488 265.903L31.72 267.156C31.4355 266.976 31.1355 266.837 30.8201 266.738C30.5046 266.633 30.1737 266.58 29.8274 266.58ZM40.9973 279.012H39.3367L35.5793 272.026V279.012H34.1042V265.449H35.5793V271.933L39.179 265.449H40.7839L37.0637 271.952L40.9973 279.012ZM47.7976 279.012L46.7771 274.652H43.5579L42.5374 279.012H40.9602L44.2351 265.449H46.0256L49.3655 279.012H47.7976ZM46.4988 273.288L45.4597 268.686C45.4164 268.457 45.3731 268.235 45.3298 268.018C45.2927 267.796 45.2556 267.582 45.2185 267.378C45.1876 267.168 45.1567 266.964 45.1257 266.766C45.1072 266.964 45.0824 267.168 45.0515 267.378C45.0206 267.588 44.9835 267.802 44.9402 268.018C44.8969 268.229 44.8505 268.445 44.801 268.668L43.7898 273.288H46.4988ZM53.7166 273.288L51.2766 279.012H49.6531L52.3806 272.972C51.8982 272.805 51.5024 272.546 51.1931 272.193C50.8839 271.841 50.655 271.423 50.5066 270.941C50.3582 270.452 50.2839 269.926 50.2839 269.364C50.2839 268.059 50.6025 267.081 51.2395 266.432C51.8765 265.776 52.829 265.449 54.0969 265.449H56.6482V279.012H55.1731V273.306L53.7166 273.288ZM55.1545 266.729H54.199C53.6361 266.729 53.1785 266.822 52.8259 267.007C52.4796 267.193 52.2229 267.483 52.0559 267.879C51.8951 268.269 51.8147 268.77 51.8147 269.382C51.8147 270.304 51.9941 270.981 52.3528 271.414C52.7115 271.847 53.2651 272.063 54.0134 272.063H55.1545V266.729ZM67.0852 266.58C66.5471 266.58 66.0833 266.732 65.6936 267.035C65.3101 267.338 64.9947 267.755 64.7473 268.287C64.5061 268.813 64.3267 269.416 64.2092 270.096C64.0979 270.771 64.0422 271.482 64.0422 272.23C64.0422 273.393 64.169 274.395 64.4226 275.236C64.6824 276.077 65.0473 276.727 65.5173 277.184C65.9874 277.636 66.5409 277.862 67.178 277.862C67.5614 277.862 67.9233 277.812 68.2634 277.713C68.6036 277.614 68.9159 277.494 69.2004 277.351V278.687C68.9036 278.86 68.5727 278.987 68.2078 279.068C67.8429 279.154 67.4439 279.198 67.011 279.198C66.0894 279.198 65.2916 278.919 64.6174 278.363C63.9433 277.806 63.4237 277.008 63.0588 275.969C62.6939 274.924 62.5115 273.671 62.5115 272.212C62.5115 271.253 62.6012 270.353 62.7805 269.512C62.9661 268.671 63.2444 267.929 63.6155 267.285C63.9928 266.642 64.4659 266.141 65.0349 265.783C65.6039 265.418 66.2719 265.235 67.0388 265.235C67.4841 265.235 67.9109 265.294 68.3191 265.411C68.7335 265.523 69.1293 265.687 69.5066 265.903L68.9778 267.156C68.6933 266.976 68.3933 266.837 68.0779 266.738C67.7625 266.633 67.4316 266.58 67.0852 266.58ZM74.2566 279.012H72.7815V266.784H70.1375V265.449H76.9099V266.784H74.2566V279.012ZM84.406 265.449L81.697 275.171C81.4125 276.192 81.128 276.996 80.8435 277.583C80.559 278.171 80.2343 278.588 79.8694 278.836C79.5107 279.077 79.0746 279.198 78.5613 279.198C78.3634 279.198 78.1747 279.179 77.9954 279.142C77.8222 279.111 77.6552 279.065 77.4944 279.003V277.658C77.6552 277.732 77.8098 277.787 77.9583 277.824C78.1067 277.862 78.2613 277.88 78.4221 277.88C78.6881 277.88 78.9107 277.8 79.0901 277.639C79.2756 277.472 79.4488 277.184 79.6096 276.776C79.7704 276.368 79.9467 275.796 80.1384 275.06L77.1233 265.449H78.6633L80.4724 271.562C80.5219 271.705 80.5683 271.859 80.6116 272.026C80.6549 272.193 80.6982 272.376 80.7415 272.574C80.7909 272.771 80.8404 272.994 80.8899 273.241H80.9827C81.0136 273.025 81.0445 272.827 81.0754 272.648C81.1125 272.468 81.1497 272.295 81.1868 272.128C81.2239 271.955 81.2672 271.785 81.3167 271.618L82.866 265.449H84.406ZM92.4216 265.449V277.667H93.6091V282.639H92.1804V279.012H85.9368V282.639H84.5081V277.667H85.3245C85.6708 276.646 85.9677 275.647 86.2151 274.67C86.4687 273.687 86.6759 272.7 86.8367 271.711C87.0037 270.721 87.1305 269.71 87.217 268.677C87.3036 267.644 87.3562 266.568 87.3748 265.449H92.4216ZM90.9465 266.766H88.7571C88.72 267.768 88.6519 268.745 88.553 269.698C88.4602 270.65 88.3334 271.581 88.1726 272.49C88.018 273.393 87.8324 274.277 87.616 275.143C87.3995 276.003 87.1521 276.844 86.8738 277.667H90.9465V266.766ZM95.3718 265.449H96.8098V273.798C96.8098 273.971 96.8067 274.154 96.8005 274.345C96.8005 274.531 96.7974 274.735 96.7913 274.958C96.7851 275.174 96.7758 275.415 96.7634 275.681C96.7511 275.941 96.7356 276.232 96.717 276.553H96.7913L101.495 265.449H103.332V279.012H101.885V270.468C101.885 270.27 101.888 270.066 101.894 269.855C101.9 269.645 101.906 269.428 101.912 269.206C101.925 268.983 101.937 268.751 101.949 268.51C101.968 268.269 101.99 268.025 102.014 267.777H101.94L97.1809 279.012H95.3718V265.449ZM109.065 273.288L106.625 279.012H105.002L107.729 272.972C107.247 272.805 106.851 272.546 106.542 272.193C106.233 271.841 106.004 271.423 105.855 270.941C105.707 270.452 105.633 269.926 105.633 269.364C105.633 268.059 105.951 267.081 106.588 266.432C107.225 265.776 108.178 265.449 109.446 265.449H111.997V279.012H110.522V273.306L109.065 273.288ZM110.503 266.729H109.548C108.985 266.729 108.527 266.822 108.175 267.007C107.828 267.193 107.572 267.483 107.405 267.879C107.244 268.269 107.163 268.77 107.163 269.382C107.163 270.304 107.343 270.981 107.701 271.414C108.06 271.847 108.614 272.063 109.362 272.063H110.503V266.729ZM124.911 265.449V277.667H126.098V282.639H124.67V279.012H118.426V282.639H116.997V277.667H117.814C118.16 276.646 118.457 275.647 118.704 274.67C118.958 273.687 119.165 272.7 119.326 271.711C119.493 270.721 119.62 269.71 119.706 268.677C119.793 267.644 119.845 266.568 119.864 265.449H124.911ZM123.436 266.766H121.246C121.209 267.768 121.141 268.745 121.042 269.698C120.949 270.65 120.823 271.581 120.662 272.49C120.507 273.393 120.322 274.277 120.105 275.143C119.889 276.003 119.641 276.844 119.363 277.667H123.436V266.766ZM127.861 265.449H129.299V273.798C129.299 273.971 129.296 274.154 129.29 274.345C129.29 274.531 129.287 274.735 129.281 274.958C129.274 275.174 129.265 275.415 129.253 275.681C129.24 275.941 129.225 276.232 129.206 276.553H129.281L133.984 265.449H135.821V279.012H134.374V270.468C134.374 270.27 134.377 270.066 134.383 269.855C134.389 269.645 134.395 269.428 134.402 269.206C134.414 268.983 134.426 268.751 134.439 268.51C134.457 268.269 134.479 268.025 134.504 267.777H134.429L129.67 279.012H127.861V265.449ZM143.957 268.556C143.957 269.428 143.753 270.158 143.345 270.746C142.943 271.333 142.365 271.723 141.61 271.915V271.989C142.464 272.094 143.11 272.434 143.549 273.01C143.988 273.585 144.208 274.358 144.208 275.329C144.208 276.121 144.066 276.807 143.781 277.388C143.497 277.964 143.07 278.409 142.501 278.724C141.938 279.04 141.233 279.198 140.385 279.198C139.897 279.198 139.424 279.151 138.966 279.058C138.515 278.966 138.097 278.826 137.714 278.641V277.157C137.936 277.299 138.19 277.426 138.474 277.537C138.765 277.642 139.062 277.722 139.365 277.778C139.674 277.834 139.968 277.862 140.246 277.862C141.075 277.862 141.687 277.651 142.083 277.231C142.479 276.81 142.677 276.155 142.677 275.264C142.677 274.361 142.448 273.696 141.99 273.269C141.539 272.843 140.837 272.629 139.885 272.629H138.892V271.293H139.885C140.454 271.293 140.93 271.2 141.313 271.015C141.697 270.823 141.984 270.539 142.176 270.161C142.368 269.778 142.464 269.296 142.464 268.714C142.464 268.009 142.297 267.48 141.963 267.128C141.629 266.775 141.159 266.599 140.552 266.599C140.157 266.599 139.792 266.679 139.458 266.84C139.13 266.995 138.849 267.202 138.614 267.462L137.881 266.395C138.153 266.129 138.434 265.912 138.725 265.745C139.022 265.578 139.337 265.455 139.671 265.374C140.011 265.294 140.382 265.254 140.784 265.254C141.459 265.254 142.031 265.39 142.501 265.662C142.971 265.934 143.33 266.317 143.577 266.812C143.83 267.307 143.957 267.888 143.957 268.556ZM152.149 279.012L151.129 274.652H147.909L146.889 279.012H145.312L148.587 265.449H150.377L153.717 279.012H152.149ZM150.85 273.288L149.811 268.686C149.768 268.457 149.725 268.235 149.681 268.018C149.644 267.796 149.607 267.582 149.57 267.378C149.539 267.168 149.508 266.964 149.477 266.766C149.459 266.964 149.434 267.168 149.403 267.378C149.372 267.588 149.335 267.802 149.292 268.018C149.248 268.229 149.202 268.445 149.153 268.668L148.141 273.288H150.85ZM155.118 265.449H156.556V273.798C156.556 273.971 156.553 274.154 156.547 274.345C156.547 274.531 156.544 274.735 156.537 274.958C156.531 275.174 156.522 275.415 156.51 275.681C156.497 275.941 156.482 276.232 156.463 276.553H156.537L161.241 265.449H163.078V279.012H161.631V270.468C161.631 270.27 161.634 270.066 161.64 269.855C161.646 269.645 161.652 269.428 161.658 269.206C161.671 268.983 161.683 268.751 161.696 268.51C161.714 268.269 161.736 268.025 161.76 267.777H161.686L156.927 279.012H155.118V265.449ZM161.742 261.571C161.699 262.189 161.569 262.709 161.352 263.129C161.136 263.544 160.836 263.856 160.452 264.066C160.069 264.276 159.599 264.382 159.042 264.382C158.479 264.382 158.006 264.283 157.623 264.085C157.239 263.887 156.942 263.581 156.732 263.166C156.528 262.752 156.407 262.22 156.37 261.571H157.586C157.641 262.245 157.781 262.73 158.003 263.027C158.232 263.324 158.578 263.472 159.042 263.472C159.525 263.472 159.877 263.318 160.1 263.009C160.329 262.699 160.471 262.22 160.527 261.571H161.742ZM173.107 279.012H171.632V272.592H167.336V279.012H165.861V265.449H167.336V271.247H171.632V265.449H173.107V279.012ZM181.336 279.012L180.315 274.652H177.096L176.075 279.012H174.498L177.773 265.449H179.564L182.904 279.012H181.336ZM180.037 273.288L178.998 268.686C178.955 268.457 178.911 268.235 178.868 268.018C178.831 267.796 178.794 267.582 178.757 267.378C178.726 267.168 178.695 266.964 178.664 266.766C178.645 266.964 178.621 267.168 178.59 267.378C178.559 267.588 178.522 267.802 178.478 268.018C178.435 268.229 178.389 268.445 178.339 268.668L177.328 273.288H180.037Z" fill="#25373D"></path>
<defs>
<linearGradient id="paint0_linear_1_4" x1="61.1442" y1="140.025" x2="156.561" y2="-4.21758" gradientUnits="userSpaceOnUse">
<stop offset="0.00288462" stop-color="#39B4FF"></stop>
<stop offset="0.1737" stop-color="#39B4FF"></stop>
<stop offset="0.5442" stop-color="#39B4FF"></stop>
<stop offset="1" stop-color="#39B4FF"></stop>
</linearGradient>
<linearGradient id="paint1_linear_1_4" x1="165.447" y1="25.7942" x2="132.797" y2="35.8791" gradientUnits="userSpaceOnUse">
<stop stop-color="#1C1B19" stop-opacity="0.95"></stop>
<stop offset="0.9971" stop-color="#1C1B19" stop-opacity="0"></stop>
</linearGradient>
<linearGradient id="paint2_linear_1_4" x1="239.68" y1="147.43" x2="139.688" y2="-11.1222" gradientUnits="userSpaceOnUse">
<stop offset="0.00288462" stop-color="#92F22A"></stop>
<stop offset="0.1394" stop-color="#92F22A"></stop>
<stop offset="0.4359" stop-color="#92F22A"></stop>
<stop offset="0.8664" stop-color="#92F22A"></stop>
<stop offset="1" stop-color="#92F22A"></stop>
</linearGradient>
<linearGradient id="paint3_linear_1_4" x1="245.635" y1="151.797" x2="204.856" y2="92.1387" gradientUnits="userSpaceOnUse">
<stop stop-color="#1C1B19" stop-opacity="0.95"></stop>
<stop offset="0.9971" stop-color="#1C1B19" stop-opacity="0"></stop>
</linearGradient>
<linearGradient id="paint4_linear_1_4" x1="275.525" y1="154.27" x2="68.3021" y2="53.1669" gradientUnits="userSpaceOnUse">
<stop offset="0.00288462" stop-color="#39B4FF"></stop>
<stop offset="0.1394" stop-color="#FFF457"></stop>
<stop offset="0.4359" stop-color="#FFF457"></stop>
<stop offset="0.8664" stop-color="#F0340F"></stop>
<stop offset="1" stop-color="#F0340F"></stop>
</linearGradient>
</defs>
</svg></svg><style>@media (prefers-color-scheme: light) { :root { filter: none; } }
@media (prefers-color-scheme: dark) { :root { filter: none; } }
</style></svg>